<?xml version="1.0" encoding="UTF-8"?>
<svg version="1.1" xmlns="http://www.w3.org/2000/svg" width="500" height="500">
<path d="M0 0 C165 0 330 0 500 0 C500 165 500 330 500 500 C335 500 170 500 0 500 C0 335 0 170 0 0 Z " fill="#000000" transform="translate(0,0)"/>
<path d="M0 0 C25.74 0 51.48 0 78 0 C78.33 28.05 78.66 56.1 79 85 C90.02333371 77.45771904 101.04513142 69.9142197 112.04833984 62.34277344 C115.36491764 60.06091481 118.6825171 57.78054245 122 55.5 C123.33333808 54.58334024 124.66667142 53.66667358 126 52.75 C139.33333333 43.58333333 152.66666667 34.41666667 166 25.25 C166.66056396 24.79584717 167.32112793 24.34169434 168.00170898 23.8737793 C169.32928867 22.96109867 170.656925 22.04850044 171.98461914 21.13598633 C175.40646265 18.78402045 178.82718115 16.43044348 182.24609375 14.07421875 C182.94798828 13.59082031 183.64988281 13.10742188 184.37304688 12.609375 C185.69373411 11.6997626 187.01407981 10.78965399 188.33398438 9.87890625 C189.5352595 9.05184037 190.74098844 8.2311931 191.95180607 7.41816139 C193.3211205 6.47005348 194.66355248 5.48194487 195.97634792 4.45700645 C201.84500557 0.07650798 206.15729266 -0.85036311 213.38500977 -0.68115234 C214.87927742 -0.68246658 214.87927742 -0.68246658 216.4037323 -0.68380737 C219.66711308 -0.67965705 222.9283886 -0.63312462 226.19140625 -0.5859375 C228.46539691 -0.57473631 230.73940212 -0.56620049 233.01341248 -0.56021118 C238.9764558 -0.53738588 244.93861163 -0.47851584 250.90130615 -0.4119873 C256.99462888 -0.35042936 263.08809607 -0.32316728 269.18164062 -0.29296875 C281.12148205 -0.2287674 293.060667 -0.12646353 305 0 C302.29532819 2.7543045 299.67033496 5.05786841 296.46484375 7.21484375 C295.14226562 8.11009766 295.14226562 8.11009766 293.79296875 9.0234375 C292.85066406 9.65507813 291.90835937 10.28671875 290.9375 10.9375 C288.93606869 12.29017339 286.93476877 13.64304122 284.93359375 14.99609375 C283.93183105 15.67140137 282.93006836 16.34670898 281.89794922 17.04248047 C277.75232087 19.84278781 273.62561924 22.670336 269.5 25.5 C262.67257041 30.17534421 255.83787469 34.83994767 249 39.5 C239.76825622 45.79177484 230.54505675 52.09591648 221.32666016 58.40722656 C216.60275952 61.64109096 211.87776426 64.87335599 207.15283203 68.10571289 C203.03212723 70.92484984 198.9120694 73.74492584 194.79296875 76.56640625 C193.51099609 77.44425781 193.51099609 77.44425781 192.203125 78.33984375 C190.57401419 79.4554305 188.94509547 80.57129784 187.31640625 81.6875 C183.2288659 84.48611212 179.12888567 87.26272603 175 90 C176.39659203 94.18977608 179.39513006 95.55215495 182.9375 97.875 C184.40757579 98.86130805 185.87627558 99.84966941 187.34375 100.83984375 C188.49423828 101.61497314 188.49423828 101.61497314 189.66796875 102.40576172 C193.477442 105.01001846 197.2068047 107.72212308 200.9375 110.4375 C207.4579269 115.17314617 214.01610375 119.84918203 220.60961914 124.48242188 C225.73196516 128.08832663 230.80828756 131.75397031 235.875 135.4375 C242.05159319 139.92548474 248.30355319 144.28126113 254.625 148.5625 C260.56964508 152.59197014 266.40103631 156.72539976 272.125 161.0625 C272.98654442 161.69994392 272.98654442 161.69994392 273.86549377 162.3502655 C277.22245856 164.84746654 280.46758727 167.38294537 283.59350586 170.1652832 C295.8186142 180.54096011 306.92767483 180.54336451 322.4375 180.125 C324.77917791 180.10908507 327.12091512 180.10033688 329.46264648 180.09863281 C333.99474254 180.09340281 338.52574833 180.06732694 343.05761719 180.02246094 C377.40136728 179.77814153 419.55449309 184.74637294 446 209 C446.70511719 209.62519531 447.41023438 210.25039063 448.13671875 210.89453125 C462.14507744 223.99568195 467.28957558 241.69599739 468.15673828 260.37646484 C468.88892355 287.76902418 468.3491622 314.45305566 448.609375 335.55078125 C432.08516503 351.06078073 409.88780066 358.11403753 388 362 C387.3311377 362.1247168 386.66227539 362.24943359 385.97314453 362.37792969 C359.44009361 367.24362388 332.18696615 367.31192939 305.29303741 367.20278788 C301.56694874 367.18994035 297.8408535 367.18908416 294.11474609 367.18673706 C287.11758537 367.18061895 280.12049016 367.16434521 273.12335777 367.14403808 C265.13245059 367.1213702 257.1415396 367.11060956 249.15060806 367.10064721 C232.76703422 367.07996539 216.38352558 367.04498656 200 367 C200.01715781 365.58919694 200.01715781 365.58919694 200.03466225 364.14989281 C200.30936476 341.22090457 200.47958407 318.29293248 200.54146767 295.36235619 C200.57379215 284.27280569 200.63954434 273.18536911 200.78515625 262.09667969 C200.91205023 252.42684948 200.97503829 242.75902665 200.96262586 233.08833563 C200.95825451 227.97086844 200.9849641 222.85798553 201.08833694 217.74146652 C202.71764335 195.8951858 202.71764335 195.8951858 195.10565186 176.49932861 C191.47041585 173.29125325 187.62843213 171.06141856 183.22004318 169.08182144 C179.74088689 167.38643736 176.93940492 164.98457464 174 162.5 C172.87288373 161.60676149 171.74301012 160.71698183 170.609375 159.83203125 C170.03123047 159.37779785 169.45308594 158.92356445 168.85742188 158.45556641 C162.25536981 153.28187629 155.62395021 148.1455969 149 143 C145.7288302 140.45876598 142.45805957 137.91701932 139.1875 135.375 C138.44081055 134.79516357 137.69412109 134.21532715 136.92480469 133.61791992 C133.2620167 130.77099573 129.61293511 127.91022278 126 125 C122.22524075 126.37464538 119.08841015 128.11048646 115.75390625 130.34375 C114.75786377 131.00874512 113.76182129 131.67374023 112.7355957 132.35888672 C111.16491333 133.41873779 111.16491333 133.41873779 109.5625 134.5 C108.4902417 135.21816895 107.4179834 135.93633789 106.31323242 136.67626953 C99.33560874 141.36803823 92.45883981 146.16891134 85.70703125 151.1796875 C83 153 83 153 78 155 C78 165.23 78 175.46 78 186 C52.26 186 26.52 186 0 186 C0 124.62 0 63.24 0 0 Z " fill="#FEFEFE" transform="translate(21,57)"/>
<path d="M0 0 C8.78625 -0.04125 17.5725 -0.0825 26.625 -0.125 C29.36893066 -0.14320801 32.11286133 -0.16141602 34.93994141 -0.18017578 C37.16047979 -0.18602721 39.38102036 -0.19112122 41.6015625 -0.1953125 C43.27545044 -0.2106604 43.27545044 -0.2106604 44.9831543 -0.22631836 C62.705038 -0.23016009 82.76665337 2.72027887 96.875 14.375 C97.57625 15.24125 98.2775 16.1075 99 17 C99.50015625 17.55042969 100.0003125 18.10085938 100.515625 18.66796875 C109.47281856 29.21223787 108.86753469 43.3681866 108.22021484 56.4921875 C107.28576308 67.13374904 102.40857884 75.54413504 94.33203125 82.33203125 C80.40647569 92.29218573 62.38254054 94.33222265 45.80078125 94.1953125 C44.63236694 94.19329834 43.46395264 94.19128418 42.26013184 94.18920898 C37.94421395 94.17883721 33.62835254 94.15091553 29.3125 94.125 C19.639375 94.08375 9.96625 94.0425 0 94 C0 62.98 0 31.96 0 0 Z " fill="#000000" transform="translate(300,283)"/>
</svg>
