<?xml version="1.0" encoding="UTF-8"?>
<svg version="1.1" xmlns="http://www.w3.org/2000/svg" width="1500" height="500">
<path d="M0 0 C495 0 990 0 1500 0 C1500 165 1500 330 1500 500 C1005 500 510 500 0 500 C0 335 0 170 0 0 Z " fill="#000000" transform="translate(0,0)"/>
<path d="M0 0 C11.488125 -0.061875 22.97625 -0.12375 34.8125 -0.1875 C38.39843018 -0.21481201 41.98436035 -0.24212402 45.67895508 -0.27026367 C94.63616968 -0.48876128 94.63616968 -0.48876128 110.94140625 14.71875 C119.97836445 24.73314011 118.76958621 37.43680592 118.22949219 50.10986328 C117.58558893 58.21893431 114.56759431 63.87423503 108.6875 69.5 C93.57037486 81.54879776 74.33073018 82.32451551 55.76171875 82.1953125 C54.32540035 82.19236245 52.88907978 82.19032796 51.45275879 82.18920898 C46.19763918 82.17883307 40.94256597 82.15091131 35.6875 82.125 C23.910625 82.08375 12.13375 82.0425 0 82 C0 54.94 0 27.88 0 0 Z " fill="#FCFCFC" transform="translate(684,205)"/>
<path d="M0 0 C17.6034375 -0.061875 17.6034375 -0.061875 35.5625 -0.125 C39.23705322 -0.14320801 42.91160645 -0.16141602 46.69750977 -0.18017578 C51.2635498 -0.18920898 51.2635498 -0.18920898 53.41636658 -0.19088745 C54.88655313 -0.19391328 56.35673546 -0.20085013 57.82688904 -0.21115112 C94.64910042 -0.45574504 94.64910042 -0.45574504 107.41015625 12.0625 C112.16338355 17.85513081 113.71391253 23.79624627 113.37109375 31.234375 C112.20906276 39.89456386 108.70357152 44.98481081 102.12109375 50.6015625 C100 52 100 52 97 52 C97 52.66 97 53.32 97 54 C97.53625 54.061875 98.0725 54.12375 98.625 54.1875 C102.03590217 55.35438758 104.69952769 57.2639716 107 60 C110 67 110 67 113 82 C102.11 82 91.22 82 80 82 C77.96114604 77.92229208 76.47183085 74.60619425 75.125 70.375 C73.53621092 65.92276598 72.25932102 63.38937521 68 61 C64.03745004 59.12356919 60.75687827 58.7056679 56.38671875 58.5859375 C55.13955078 58.54726563 53.89238281 58.50859375 52.60742188 58.46875 C51.31384766 58.4378125 50.02027344 58.406875 48.6875 58.375 C47.37458984 58.33632813 46.06167969 58.29765625 44.70898438 58.2578125 C41.47288449 58.16367141 38.23646166 58.08075216 35 58 C35 65.92 35 73.84 35 82 C23.45 82 11.9 82 0 82 C0 54.94 0 27.88 0 0 Z " fill="#FCFCFC" transform="translate(305,205)"/>
<path d="M0 0 C6.6825 -0.28875 13.365 -0.5775 20.25 -0.875 C23.3751709 -1.06618408 23.3751709 -1.06618408 26.56347656 -1.26123047 C40.62501848 -1.75861651 40.62501848 -1.75861651 45.87890625 2.98535156 C48.53783282 5.86404211 50.7615539 8.95581348 52.86254883 12.25811768 C54.54567657 14.8356441 56.51641752 17.15038267 58.5 19.5 C59.2115625 20.3765625 59.923125 21.253125 60.65625 22.15625 C63.39302294 25.47686783 66.1911245 28.7403826 69 32 C75.18754649 39.1839545 81.3092088 46.41227839 87 54 C87.33 36.18 87.66 18.36 88 0 C99.22 0 110.44 0 122 0 C122 27.06 122 54.12 122 82 C108.47 82 94.94 82 81 82 C75.24225003 75.66647503 69.6989548 69.50822975 64.34765625 62.8828125 C61.77184834 59.71984039 59.14297512 56.60679942 56.5 53.5 C52.32865402 48.59253415 48.22317575 43.6371105 44.16796875 38.6328125 C41.49189504 35.38295001 38.73974486 32.196369 36 29 C35.67 46.49 35.34 63.98 35 82 C23.45 82 11.9 82 0 82 C0 54.94 0 27.88 0 0 Z " fill="#FDFDFD" transform="translate(544,205)"/>
<path d="M0 0 C11.653125 -0.061875 23.30625 -0.12375 35.3125 -0.1875 C38.95063721 -0.21481201 42.58877441 -0.24212402 46.3371582 -0.27026367 C93.1505123 -0.4779949 93.1505123 -0.4779949 105.73046875 10.51171875 C111.66829512 17.14606434 112.60878544 23.63115153 112.40625 32.23046875 C111.63026061 39.43075494 108.96485741 44.73978902 103.375 49.375 C88.59898708 59.15202537 70.63643783 58.28083202 53.6875 58.125 C51.77148908 58.1149456 49.85547302 58.10582412 47.93945312 58.09765625 C43.29273498 58.07756668 38.6467451 58.03838523 34 58 C34 65.92 34 73.84 34 82 C22.78 82 11.56 82 0 82 C0 54.94 0 27.88 0 0 Z " fill="#FDFDFD" transform="translate(869,205)"/>
<path d="M0 0 C11.22 0 22.44 0 34 0 C34.33 12.21 34.66 24.42 35 37 C37.84625 34.999375 40.6925 32.99875 43.625 30.9375 C51.21562673 25.61595517 58.84026776 20.34657707 66.5 15.125 C67.36963379 14.53195068 68.23926758 13.93890137 69.13525391 13.32788086 C70.86684016 12.14987203 72.60877558 10.98694268 74.36035156 9.83886719 C77.05415806 8.03608416 77.05415806 8.03608416 79.50683594 5.79394531 C89.38289444 -2.29362016 100.08048401 -0.90393571 112.25 -0.5 C114.36321346 -0.45980389 116.47650083 -0.42331399 118.58984375 -0.390625 C123.72841148 -0.30315564 128.86337733 -0.16549218 134 0 C131.61976958 2.46946455 129.31915819 4.61649504 126.4453125 6.48828125 C125.75904785 6.93977539 125.0727832 7.39126953 124.36572266 7.85644531 C123.62628418 8.33694336 122.8868457 8.81744141 122.125 9.3125 C120.50965625 10.37514706 118.89510961 11.43900656 117.28125 12.50390625 C116.42660156 13.0673877 115.57195312 13.63086914 114.69140625 14.21142578 C109.02316426 17.9782564 103.41706782 21.8370954 97.80273438 25.68359375 C91.87440001 29.74004492 85.90763718 33.71808501 79.8515625 37.58203125 C79.24054688 38.04996094 78.62953125 38.51789063 78 39 C78 39.66 78 40.32 78 41 C80.42280084 42.85543608 82.85621107 44.59534302 85.375 46.3125 C86.94600673 47.40134278 88.5162966 48.49122045 90.0859375 49.58203125 C90.90030273 50.14615723 91.71466797 50.7102832 92.55371094 51.29150391 C96.40358354 53.98026723 100.20147125 56.73940257 104 59.5 C108.56810866 62.81627119 113.14635241 66.11398694 117.7734375 69.34765625 C118.54558594 69.88777344 119.31773438 70.42789063 120.11328125 70.984375 C121.57955025 72.00747116 123.04816502 73.02721684 124.51953125 74.04296875 C125.18082031 74.50445312 125.84210938 74.9659375 126.5234375 75.44140625 C127.10013184 75.84045166 127.67682617 76.23949707 128.27099609 76.65063477 C130.35582318 78.27769482 132.16153788 80.10237072 134 82 C127.81132751 82.24923402 121.62563984 82.4295845 115.43310547 82.54931641 C113.33200134 82.59927363 111.23123894 82.66726893 109.13134766 82.75439453 C88.90237342 83.57201831 88.90237342 83.57201831 82.07421875 77.359375 C80.3553592 75.59931525 78.66103711 73.81472979 77 72 C75.53190364 70.80765474 74.03540753 69.64879128 72.50390625 68.5390625 C71.84326172 68.04792969 71.18261719 67.55679688 70.50195312 67.05078125 C69.86193359 66.58027344 69.22191406 66.10976563 68.5625 65.625 C67.22991991 64.63876198 65.89787567 63.65179946 64.56640625 62.6640625 C63.95168457 62.21321289 63.33696289 61.76236328 62.70361328 61.29785156 C61.17189819 60.13095597 59.71812372 58.86341529 58.27734375 57.5859375 C56.19627409 55.75830782 56.19627409 55.75830782 54.09643555 56.24438477 C51.81518662 57.06661202 50.15001398 58.09385863 48.1796875 59.50390625 C47.12974609 60.24350586 47.12974609 60.24350586 46.05859375 60.99804688 C45.33800781 61.51431641 44.61742187 62.03058594 43.875 62.5625 C42.43788269 63.58883068 40.99791113 64.61118016 39.5546875 65.62890625 C38.92030762 66.08338135 38.28592773 66.53785645 37.63232422 67.00610352 C36 68 36 68 34 68 C34 72.62 34 77.24 34 82 C22.78 82 11.56 82 0 82 C0 54.94 0 27.88 0 0 Z " fill="#FDFDFD" transform="translate(1134,205)"/>
<path d="M0 0 C11.22 0 22.44 0 34 0 C34 12.21 34 24.42 34 37 C44.72002616 29.88123263 55.39400234 22.71087307 65.97949219 15.39404297 C68.12155057 13.91613657 70.26733481 12.44377122 72.4140625 10.97265625 C73.13964355 10.47515869 73.86522461 9.97766113 74.61279297 9.46508789 C75.99946082 8.51450601 77.38648404 7.56444222 78.77392578 6.61499023 C79.40024902 6.18516846 80.02657227 5.75534668 80.671875 5.3125 C81.2194043 4.93738281 81.76693359 4.56226563 82.33105469 4.17578125 C84.06692443 2.99151113 84.06692443 2.99151113 85.81774902 1.44779968 C88.34244331 -0.2271917 89.58964976 -0.36581756 92.58496094 -0.34057617 C93.93590851 -0.34023628 93.93590851 -0.34023628 95.31414795 -0.33988953 C96.27782288 -0.32440567 97.2414978 -0.30892181 98.234375 -0.29296875 C99.72411835 -0.28660149 99.72411835 -0.28660149 101.24395752 -0.28010559 C104.41291528 -0.26332634 107.58123478 -0.225675 110.75 -0.1875 C112.89973039 -0.17245221 115.04947076 -0.15876397 117.19921875 -0.14648438 C122.46636323 -0.11342536 127.73313601 -0.06323334 133 0 C129.5968102 3.57885342 126.15494081 6.44154742 122.0546875 9.1875 C121.20929161 9.75731346 121.20929161 9.75731346 120.34681702 10.33863831 C118.52626028 11.56421494 116.70068965 12.78208624 114.875 14 C113.61621011 14.84566619 112.35783061 15.69194356 111.09985352 16.53881836 C108.58595983 18.23082369 106.07057484 19.92057522 103.55419922 21.60888672 C98.660924 24.89600374 93.7975262 28.22648679 88.9375 31.5625 C87.44671793 32.58478614 85.95584239 33.60693601 84.46484375 34.62890625 C83.862771 35.04213135 83.26069824 35.45535645 82.64038086 35.88110352 C81.10073358 36.93129007 79.55069835 37.9662011 78 39 C79.14399997 42.43199991 79.77337217 42.798039 82.69140625 44.71484375 C83.46291016 45.22982422 84.23441406 45.74480469 85.02929688 46.27539062 C86.28323242 47.09813477 86.28323242 47.09813477 87.5625 47.9375 C93.83900124 52.13593866 100.00384866 56.40950885 106 61 C112.81192526 66.20804078 119.83483902 71.05892515 126.97070312 75.8125 C127.74220703 76.33070313 128.51371094 76.84890625 129.30859375 77.3828125 C129.99751709 77.84059082 130.68644043 78.29836914 131.39624023 78.77001953 C133 80 133 80 134 82 C127.86638992 82.3000449 121.73717718 82.51590602 115.59790039 82.65917969 C113.51706439 82.7189766 111.43672045 82.80045547 109.35766602 82.90527344 C98.27125461 83.44958822 89.26177472 83.80122418 80.48046875 76.296875 C78.81090142 74.75508651 77.19613545 73.1796246 75.60455322 71.55761719 C72.90490346 68.93693698 69.89133943 66.73946895 66.875 64.5 C63.96437641 62.27814993 61.11106047 60.09945714 58.3828125 57.65625 C56.21848724 55.81374398 56.21848724 55.81374398 54.0625 56.0078125 C51.18822381 57.39051354 48.63437517 59.07703894 46 60.875 C44.96875 61.57367188 43.9375 62.27234375 42.875 62.9921875 C41.1369849 64.20596435 39.42052817 65.45271237 37.75 66.7578125 C36 68 36 68 34 68 C34 72.62 34 77.24 34 82 C22.78 82 11.56 82 0 82 C0 54.94 0 27.88 0 0 Z " fill="#FDFDFD" transform="translate(48,205)"/>
<path d="M0 0 C1.13222488 -0.00723587 1.13222488 -0.00723587 2.287323 -0.01461792 C14.38117633 0.07446796 14.38117633 0.07446796 19.3984375 3.11767578 C23.39627277 7.26028245 25.43270759 12.42651299 27.60400391 17.68603516 C30.0424429 23.06024398 33.43152514 27.84430557 36.6875 32.75 C38.05059863 34.86870272 39.40993717 36.98982896 40.765625 39.11328125 C41.44947266 40.1801416 42.13332031 41.24700195 42.83789062 42.34619141 C44.973139 45.68065485 47.10431105 49.01769143 49.234375 52.35546875 C49.93852539 53.45810059 50.64267578 54.56073242 51.36816406 55.69677734 C52.69913451 57.78116877 54.02928052 59.86608697 55.35839844 61.95166016 C59.30672971 68.1311613 63.33988252 74.24103082 67.45117188 80.31323242 C68.9375 82.625 68.9375 82.625 68.9375 83.625 C64.06313009 83.84829729 59.19176039 84.01113882 54.31347656 84.11938477 C52.65637346 84.16451672 50.99962631 84.22584462 49.34375 84.30395508 C35.60489814 84.93557898 35.60489814 84.93557898 31.51660156 81.72216797 C29.08305975 78.17367708 27.94499458 74.76487381 26.9375 70.625 C19.51712179 70.46342813 12.10010303 70.39595683 4.67797852 70.39306641 C2.15499773 70.38108075 -0.36797727 70.34775975 -2.89038086 70.29248047 C-14.58290457 69.84198153 -14.58290457 69.84198153 -26.0625 71.625 C-28.9406037 74.62912654 -29.91147007 77.07185229 -31.32641602 80.94433594 C-33.0625 83.625 -33.0625 83.625 -36.81616211 84.61035156 C-41.55918014 84.95482688 -46.26195024 84.67457249 -51 84.375 C-52.65410365 84.31475066 -54.30841759 84.26000739 -55.96289062 84.2109375 C-60.00131325 84.07920348 -64.02959002 83.87259306 -68.0625 83.625 C-66.84320183 80.37776454 -65.50045697 77.53060034 -63.5859375 74.640625 C-63.08860107 73.88370361 -62.59126465 73.12678223 -62.07885742 72.34692383 C-61.53720947 71.53118896 -60.99556152 70.7154541 -60.4375 69.875 C-59.25303324 68.07218786 -58.069481 66.26877462 -56.88671875 64.46484375 C-56.26200684 63.51335449 -55.63729492 62.56186523 -54.99365234 61.58154297 C-51.71095401 56.55581897 -48.48113049 51.49647281 -45.25 46.4375 C-44.58750244 45.40157715 -43.92500488 44.3656543 -43.24243164 43.29833984 C-40.08017172 38.35258205 -36.92135201 33.40464933 -33.76719666 28.45372009 C-32.67459338 26.73918155 -31.58120317 25.02514755 -30.48754883 23.3112793 C-29.11597674 21.16143158 -27.74593229 19.01060821 -26.37768555 16.85864258 C-25.15348528 14.94063918 -23.91333399 13.0326868 -22.65454102 11.13720703 C-21.05148487 8.73569047 -21.05148487 8.73569047 -20.06225586 6.42138672 C-16.37183488 -0.95945523 -7.22767436 0.01469138 0 0 Z " fill="#FCFCFC" transform="translate(1339.0625,203.375)"/>
<path d="M0 0 C1.13222488 -0.00723587 1.13222488 -0.00723587 2.287323 -0.01461792 C14.38117633 0.07446796 14.38117633 0.07446796 19.3984375 3.11767578 C23.39627277 7.26028245 25.43270759 12.42651299 27.60400391 17.68603516 C30.0424429 23.06024398 33.43152514 27.84430557 36.6875 32.75 C38.05059863 34.86870272 39.40993717 36.98982896 40.765625 39.11328125 C41.44947266 40.1801416 42.13332031 41.24700195 42.83789062 42.34619141 C44.973139 45.68065485 47.10431105 49.01769143 49.234375 52.35546875 C49.93852539 53.45810059 50.64267578 54.56073242 51.36816406 55.69677734 C52.69913451 57.78116877 54.02928052 59.86608697 55.35839844 61.95166016 C59.30672971 68.1311613 63.33988252 74.24103082 67.45117188 80.31323242 C68.9375 82.625 68.9375 82.625 68.9375 83.625 C64.06313009 83.84829729 59.19176039 84.01113882 54.31347656 84.11938477 C52.65637346 84.16451672 50.99962631 84.22584462 49.34375 84.30395508 C35.60489814 84.93557898 35.60489814 84.93557898 31.51660156 81.72216797 C29.08305975 78.17367708 27.94499458 74.76487381 26.9375 70.625 C19.51712179 70.46342813 12.10010303 70.39595683 4.67797852 70.39306641 C2.15499773 70.38108075 -0.36797727 70.34775975 -2.89038086 70.29248047 C-14.58290457 69.84198153 -14.58290457 69.84198153 -26.0625 71.625 C-28.9406037 74.62912654 -29.91147007 77.07185229 -31.32641602 80.94433594 C-33.0625 83.625 -33.0625 83.625 -36.81616211 84.61035156 C-41.55918014 84.95482688 -46.26195024 84.67457249 -51 84.375 C-52.65410365 84.31475066 -54.30841759 84.26000739 -55.96289062 84.2109375 C-60.00131325 84.07920348 -64.02959002 83.87259306 -68.0625 83.625 C-66.84320183 80.37776454 -65.50045697 77.53060034 -63.5859375 74.640625 C-63.08860107 73.88370361 -62.59126465 73.12678223 -62.07885742 72.34692383 C-61.53720947 71.53118896 -60.99556152 70.7154541 -60.4375 69.875 C-59.25303324 68.07218786 -58.069481 66.26877462 -56.88671875 64.46484375 C-56.26200684 63.51335449 -55.63729492 62.56186523 -54.99365234 61.58154297 C-51.71095401 56.55581897 -48.48113049 51.49647281 -45.25 46.4375 C-44.58750244 45.40157715 -43.92500488 44.3656543 -43.24243164 43.29833984 C-40.08017172 38.35258205 -36.92135201 33.40464933 -33.76719666 28.45372009 C-32.67459338 26.73918155 -31.58120317 25.02514755 -30.48754883 23.3112793 C-29.11597674 21.16143158 -27.74593229 19.01060821 -26.37768555 16.85864258 C-25.15348528 14.94063918 -23.91333399 13.0326868 -22.65454102 11.13720703 C-21.05148487 8.73569047 -21.05148487 8.73569047 -20.06225586 6.42138672 C-16.37183488 -0.95945523 -7.22767436 0.01469138 0 0 Z " fill="#FCFCFC" transform="translate(1055.0625,203.375)"/>
<path d="M0 0 C31.35 0 62.7 0 95 0 C95 6.6 95 13.2 95 20 C75.2 20 55.4 20 35 20 C35 24.29 35 28.58 35 33 C51.83 33 68.66 33 86 33 C86 38.28 86 43.56 86 49 C69.17 49 52.34 49 35 49 C35 53.29 35 57.58 35 62 C56.12 62 77.24 62 99 62 C99 68.6 99 75.2 99 82 C66.33 82 33.66 82 0 82 C0 54.94 0 27.88 0 0 Z " fill="#FDFDFD" transform="translate(431,205)"/>
<path d="M0 0 C31.02 0 62.04 0 94 0 C94 6.6 94 13.2 94 20 C74.2 20 54.4 20 34 20 C34 24.29 34 28.58 34 33 C50.83 33 67.66 33 85 33 C85 38.28 85 43.56 85 49 C68.17 49 51.34 49 34 49 C34 53.29 34 57.58 34 62 C55.45 62 76.9 62 99 62 C99 68.6 99 75.2 99 82 C66.33 82 33.66 82 0 82 C0 54.94 0 27.88 0 0 Z " fill="#FEFEFE" transform="translate(193,205)"/>
<path d="M0 0 C11.55 0 23.1 0 35 0 C35 27.06 35 54.12 35 82 C23.45 82 11.9 82 0 82 C0 54.94 0 27.88 0 0 Z " fill="#FBFBFB" transform="translate(816,205)"/>
<path d="M0 0 C11.22 0 22.44 0 34 0 C34 27.06 34 54.12 34 82 C22.78 82 11.56 82 0 82 C0 54.94 0 27.88 0 0 Z " fill="#FFFFFF" transform="translate(1418,205)"/>
<path d="M0 0 C4.3725 -0.0825 8.745 -0.165 13.25 -0.25 C14.60254883 -0.28641602 15.95509766 -0.32283203 17.34863281 -0.36035156 C26.06706258 -0.43903317 35.47858443 0.02881964 42.32714844 6.04394531 C47.14579476 11.27236628 48.31334498 15.34203408 48.2109375 22.3671875 C47.77186431 27.84747139 46.21346561 31.59493456 42.625 35.75 C30.19406681 44.52302701 14.3383774 42.29412056 0 42 C0 28.14 0 14.28 0 0 Z " fill="#030303" transform="translate(719,225)"/>
<path d="M0 0 C4.10784995 -0.04624221 8.21502543 -0.08596583 12.32299805 -0.10986328 C13.71658409 -0.1198393 15.11014966 -0.13342501 16.50366211 -0.15087891 C33.62501212 -0.35975078 33.62501212 -0.35975078 41.5625 3.125 C43.57910859 5.75535903 43.50494537 7.88408564 43.30859375 11.1328125 C43 13 43 13 42 14.875 C36.52401716 17.95524035 30.3609797 18.24484661 24.21875 18.1953125 C23.51979614 18.1924826 22.82084229 18.18965271 22.10070801 18.18673706 C19.90028684 18.1756727 17.70029507 18.15059606 15.5 18.125 C13.99479761 18.11495235 12.48958874 18.10582965 10.984375 18.09765625 C7.32262405 18.07749242 3.66178427 18.038321 0 18 C0 12.06 0 6.12 0 0 Z " fill="#070707" transform="translate(903,225)"/>
<path d="M0 0 C3.96544147 -0.0462592 7.93018317 -0.08597719 11.89575195 -0.10986328 C13.89736377 -0.12470245 15.89888812 -0.15013361 17.90039062 -0.17578125 C34.63406023 -0.26008185 34.63406023 -0.26008185 42 4 C43.42041821 6.84083641 43.31452272 8.85477278 43 12 C40.1168636 16.15171642 36.78021463 16.8725535 32 18 C29.44270269 18.15557575 26.87834885 18.21589035 24.31640625 18.1953125 C23.26585304 18.19106766 23.26585304 18.19106766 22.19407654 18.18673706 C19.9833683 18.17564885 17.77308329 18.15056703 15.5625 18.125 C14.05274028 18.11495546 12.54297412 18.1058322 11.03320312 18.09765625 C7.35517927 18.07745843 3.67805664 18.03829093 0 18 C0 12.06 0 6.12 0 0 Z " fill="#050505" transform="translate(340,225)"/>
<path d="M0 0 C3.81122077 4.38112294 6.48258072 9.18176119 9.25 14.25 C9.70890625 15.07757813 10.1678125 15.90515625 10.640625 16.7578125 C14 22.85667783 14 22.85667783 14 24 C4.76 24 -4.48 24 -14 24 C-5.41230068 7.56492027 -5.41230068 7.56492027 0 0 Z " fill="#040404" transform="translate(1339,229)"/>
<path d="M0 0 C3.81122077 4.38112294 6.48258072 9.18176119 9.25 14.25 C9.70890625 15.07757813 10.1678125 15.90515625 10.640625 16.7578125 C14 22.85667783 14 22.85667783 14 24 C4.76 24 -4.48 24 -14 24 C-5.41230068 7.56492027 -5.41230068 7.56492027 0 0 Z " fill="#040404" transform="translate(1055,229)"/>
</svg>
