<?xml version="1.0" standalone="no"?>
<!DOCTYPE svg PUBLIC "-//W3C//DTD SVG 20010904//EN"
 "http://www.w3.org/TR/2001/REC-SVG-20010904/DTD/svg10.dtd">
<svg version="1.0" xmlns="http://www.w3.org/2000/svg"
 width="500.000000pt" height="500.000000pt" viewBox="0 0 500.000000 500.000000"
 preserveAspectRatio="xMidYMid meet">

<g transform="translate(0.000000,500.000000) scale(0.100000,-0.100000)"
fill="#000000" stroke="none">
<path d="M217 4433 c-4 -3 -7 -424 -7 -935 l0 -928 390 0 389 0 3 152 3 152
80 56 c44 31 148 102 232 159 l151 103 376 -293 376 -293 0 -924 0 -924 783 5
c827 5 886 8 1137 58 435 85 687 293 740 610 29 175 21 456 -16 604 -61 238
-266 416 -581 505 -226 64 -467 90 -836 90 l-247 0 -620 441 c-341 243 -620
445 -620 449 0 4 289 205 642 446 353 241 651 446 662 456 20 17 -3 17 -486
18 l-507 0 -109 -74 c-60 -41 -342 -235 -626 -430 -285 -196 -522 -356 -527
-356 -5 0 -9 176 -9 430 l0 430 -383 0 c-211 0 -387 -3 -390 -7z m3371 -2274
c116 -12 216 -40 293 -81 141 -74 199 -184 199 -380 0 -211 -60 -317 -224
-394 -126 -59 -185 -67 -538 -71 l-318 -4 0 470 0 471 245 0 c135 0 289 -5
343 -11z"/>
</g>
</svg>
